<svg width="556" height="63" viewBox="0 0 556 63" fill="none" xmlns="http://www.w3.org/2000/svg">
<path d="M0.472 12.256C0.472 5.184 5.56 0.255999 12.696 0.255999C15.416 0.255999 17.4 0.959999 18.552 1.6V5.856C17.4 5.088 15.256 4.512 13.112 4.512C8.344 4.512 5.112 7.68 5.112 12.256C5.112 16.832 8.344 20 13.08 20C15.256 20 17.368 19.424 18.552 18.688V22.912C17.752 23.52 15.384 24.256 12.664 24.256C5.592 24.256 0.472 19.36 0.472 12.256ZM21.4288 6.464H37.3008V10.176H31.5088V24H27.2528V10.176H21.4288V6.464ZM48.691 24.256C43.091 24.256 39.219 20.448 39.251 15.2C39.283 9.952 43.187 6.208 48.659 6.208C54.227 6.208 58.163 9.984 58.163 15.2C58.163 20.512 54.259 24.256 48.691 24.256ZM53.715 15.328C53.715 12.256 51.635 10.016 48.691 10.016C45.811 10.016 43.731 12.224 43.731 15.232C43.731 18.24 45.683 20.448 48.723 20.448C51.731 20.448 53.715 18.272 53.715 15.328ZM81.1625 6.464L83.6585 24H79.5305L78.0585 13.024L73.4185 24H70.7305L66.1865 13.184L64.7145 24H60.5865L63.1145 6.464H67.4025L72.1065 17.952L76.8105 6.464H81.1625ZM86.0955 18.848C86.0955 15.104 89.2315 13.12 93.5515 13.12C94.8955 13.12 96.2715 13.312 97.5835 13.696C97.6475 11.2 96.1755 10.016 93.3915 10.016C91.5355 10.016 88.9435 10.72 87.6315 11.552V7.872C88.9755 6.88 91.8875 6.208 93.7435 6.208C99.0875 6.208 101.904 8.736 101.904 14.208V24H97.7755L97.6155 21.728C97.0075 22.784 95.2155 24.256 92.0475 24.256C88.9755 24.256 86.0955 22.336 86.0955 18.848ZM90.4475 18.72C90.4475 20.32 91.7595 20.992 93.1035 20.992C95.2475 20.992 97.5195 19.296 97.6155 16.736C96.4955 16.224 95.3755 16 94.2875 16C91.9515 16 90.4475 17.056 90.4475 18.72ZM103.96 6.464H119.832V10.176H114.04V24H109.784V10.176H103.96V6.464ZM131.222 24.256C125.622 24.256 121.75 20.448 121.782 15.2C121.814 9.952 125.718 6.208 131.19 6.208C136.758 6.208 140.694 9.984 140.694 15.2C140.694 20.512 136.79 24.256 131.222 24.256ZM136.246 15.328C136.246 12.256 134.166 10.016 131.222 10.016C128.342 10.016 126.262 12.224 126.262 15.232C126.262 18.24 128.214 20.448 131.254 20.448C134.262 20.448 136.246 18.272 136.246 15.328ZM141.612 24V20.48C141.868 20.576 142.124 20.576 142.38 20.576C144.268 20.576 145.004 17.344 145.708 6.464H158.38V24H154.124V10.176H149.516C148.588 19.968 147.596 24.256 143.436 24.256C142.764 24.256 142.156 24.192 141.612 24ZM171.16 24.256C165.56 24.256 161.688 20.448 161.72 15.2C161.752 9.952 165.656 6.208 171.128 6.208C176.696 6.208 180.632 9.984 180.632 15.2C180.632 20.512 176.728 24.256 171.16 24.256ZM176.184 15.328C176.184 12.256 174.104 10.016 171.16 10.016C168.28 10.016 166.2 12.224 166.2 15.232C166.2 18.24 168.152 20.448 171.192 20.448C174.2 20.448 176.184 18.272 176.184 15.328ZM196.431 6.464V10.176H188.527V24H184.239V6.464H196.431ZM204.215 17.824L211.959 6.464H216.023V24H211.767V12.992L203.991 24H199.927V6.464H204.215V17.824ZM219.434 11.68V6.464H223.914V10.848C223.914 13.536 225.066 14.112 226.698 14.112C228.266 14.112 229.898 13.6 230.954 12.96V6.464H235.242V24H230.954V16.736C229.738 17.408 227.818 17.888 225.642 17.888C221.706 17.888 219.434 16.256 219.434 11.68ZM256.094 15.488V16.704H243.326C243.966 19.488 246.206 20.448 248.67 20.448C251.262 20.448 253.278 19.552 254.398 18.656V22.624C253.054 23.488 251.326 24.256 248.35 24.256C242.718 24.256 238.782 20.96 238.814 15.072C238.846 9.376 242.558 6.208 247.582 6.208C252.286 6.208 255.998 8.928 256.094 15.488ZM247.614 10.016C245.086 10.016 243.646 11.168 243.262 13.536H251.838C251.358 10.912 249.79 10.016 247.614 10.016ZM273.629 19.008V22.976C271.901 24 269.693 24.256 267.997 24.256C262.301 24.256 258.813 20.448 258.845 15.264C258.877 9.728 262.845 6.208 268.477 6.208C270.045 6.208 271.997 6.496 273.629 7.424V11.392C272.253 10.464 270.525 10.016 268.893 10.016C265.661 10.016 263.293 11.712 263.325 15.232C263.357 18.816 265.917 20.448 268.893 20.448C270.493 20.448 272.445 19.968 273.629 19.008ZM289.252 6.464H294.5L287.3 14.048L294.5 24H289.476L284.548 16.928L282.34 19.264V24H278.052V6.464H282.34V13.984L289.252 6.464ZM295.877 18.848C295.877 15.104 299.013 13.12 303.333 13.12C304.677 13.12 306.053 13.312 307.365 13.696C307.429 11.2 305.957 10.016 303.173 10.016C301.317 10.016 298.725 10.72 297.413 11.552V7.872C298.757 6.88 301.669 6.208 303.525 6.208C308.869 6.208 311.685 8.736 311.685 14.208V24H307.557L307.397 21.728C306.789 22.784 304.997 24.256 301.829 24.256C298.757 24.256 295.877 22.336 295.877 18.848ZM300.229 18.72C300.229 20.32 301.541 20.992 302.885 20.992C305.029 20.992 307.301 19.296 307.397 16.736C306.277 16.224 305.157 16 304.069 16C301.733 16 300.229 17.056 300.229 18.72ZM330.038 6.464V24H325.782V17.568H324.278L318.998 24H314.262L319.894 17.216C317.27 16.608 315.286 15.136 315.286 11.904C315.286 6.944 320.374 6.464 324.054 6.464H330.038ZM324.022 9.824C321.526 9.824 319.638 10.08 319.638 12.096C319.638 14.272 321.494 14.56 323.702 14.56H325.782V9.824H324.022ZM356.05 6.464V24H351.794V10.176H344.434V24H340.146V6.464H356.05ZM368.816 24.256C363.216 24.256 359.344 20.448 359.376 15.2C359.408 9.952 363.312 6.208 368.784 6.208C374.352 6.208 378.288 9.984 378.288 15.2C378.288 20.512 374.384 24.256 368.816 24.256ZM373.84 15.328C373.84 12.256 371.76 10.016 368.816 10.016C365.936 10.016 363.856 12.224 363.856 15.232C363.856 18.24 365.808 20.448 368.848 20.448C371.856 20.448 373.84 18.272 373.84 15.328ZM379.206 24V20.48C379.462 20.576 379.718 20.576 379.974 20.576C381.862 20.576 382.598 17.344 383.302 6.464H395.974V24H391.718V10.176H387.11C386.182 19.968 385.19 24.256 381.03 24.256C380.358 24.256 379.75 24.192 379.206 24ZM404.715 17.824L412.459 6.464H416.523V24H412.267V12.992L404.491 24H400.427V6.464H404.715V17.824ZM432.158 6.464H437.406L430.206 14.048L437.406 24H432.382L427.454 16.928L425.246 19.264V24H420.958V6.464H425.246V13.984L432.158 6.464ZM438.924 24V20.48C439.18 20.576 439.436 20.576 439.692 20.576C441.58 20.576 442.316 17.344 443.02 6.464H455.692V24H451.436V10.176H446.828C445.9 19.968 444.908 24.256 440.748 24.256C440.076 24.256 439.468 24.192 438.924 24ZM464.434 17.824L472.178 6.464H476.242V24H471.986V12.992L464.21 24H460.146V6.464H464.434V17.824ZM492.197 13.344V6.464H496.453V24H492.197V17.056H484.965V24H480.677V6.464H484.965V13.344H492.197ZM505.184 17.824L512.928 6.464H516.992V24H512.736V12.992L504.96 24H500.896V6.464H505.184V17.824ZM532.627 6.464H537.875L530.675 14.048L537.875 24H532.851L527.923 16.928L525.715 19.264V24H521.427V6.464H525.715V13.984L532.627 6.464ZM539.252 18.848C539.252 15.104 542.388 13.12 546.708 13.12C548.052 13.12 549.428 13.312 550.74 13.696C550.804 11.2 549.332 10.016 546.548 10.016C544.692 10.016 542.1 10.72 540.788 11.552V7.872C542.132 6.88 545.044 6.208 546.9 6.208C552.244 6.208 555.06 8.736 555.06 14.208V24H550.932L550.772 21.728C550.164 22.784 548.372 24.256 545.204 24.256C542.132 24.256 539.252 22.336 539.252 18.848ZM543.604 18.72C543.604 20.32 544.916 20.992 546.26 20.992C548.404 20.992 550.676 19.296 550.772 16.736C549.652 16.224 548.532 16 547.444 16C545.108 16 543.604 17.056 543.604 18.72ZM2.04 56V33.152H5.272L15.672 51.968H15.8C15.7787 51.4133 15.7467 50.7733 15.704 50.048C15.6613 49.3227 15.6293 48.5973 15.608 47.872C15.5867 47.1253 15.576 46.4853 15.576 45.952V33.152H18.104V56H14.968L4.44 37.12H4.312C4.35467 37.6747 4.38667 38.336 4.408 39.104C4.45067 39.8507 4.48267 40.5973 4.504 41.344C4.54667 42.0907 4.568 42.752 4.568 43.328V56H2.04ZM21.144 56V53.792H29.368V56H21.144ZM25.24 51.712C24.3227 51.712 23.5013 51.5093 22.776 51.104C22.072 50.6773 21.5173 50.0587 21.112 49.248C20.7067 48.4373 20.504 47.4453 20.504 46.272C20.504 44.5227 20.9307 43.1893 21.784 42.272C22.6587 41.3333 23.8427 40.864 25.336 40.864C26.2533 40.864 27.064 41.0773 27.768 41.504C28.4933 41.9093 29.0587 42.5173 29.464 43.328C29.8907 44.1173 30.104 45.0987 30.104 46.272C30.104 48.0213 29.6667 49.3653 28.792 50.304C27.9173 51.2427 26.7333 51.712 25.24 51.712ZM25.304 49.856C26.2427 49.856 26.9147 49.5573 27.32 48.96C27.7253 48.3413 27.928 47.4453 27.928 46.272C27.928 45.0773 27.7253 44.2027 27.32 43.648C26.9147 43.072 26.2427 42.784 25.304 42.784C24.3867 42.784 23.7147 43.072 23.288 43.648C22.8613 44.2027 22.648 45.0773 22.648 46.272C22.648 47.4453 22.8507 48.3413 23.256 48.96C23.6827 49.5573 24.3653 49.856 25.304 49.856ZM38.153 32.512H41.225V56H36.937V36.896L32.425 37.888V34.272L38.153 32.512ZM63.775 38.464V42.176H55.871V56H51.583V38.464H63.775ZM64.6243 56.256C63.1523 56.256 61.9683 55.2 61.9683 53.696C61.9683 52.224 63.1523 51.136 64.6243 51.136C66.0963 51.136 67.2803 52.224 67.2803 53.696C67.2803 55.2 66.0963 56.256 64.6243 56.256ZM83.786 56H76.746V32.48H92.138V36.448H81.194V41.984L86.474 42.016C91.178 42.048 94.058 44.288 94.058 48.928C94.058 55.744 87.914 56 83.786 56ZM81.194 45.792V52.16H84.394C87.114 52.16 89.258 51.776 89.258 48.96C89.258 46.336 87.018 45.792 84.298 45.792H81.194ZM114.062 47.488V48.704H101.294C101.934 51.488 104.174 52.448 106.638 52.448C109.23 52.448 111.246 51.552 112.366 50.656V54.624C111.022 55.488 109.294 56.256 106.318 56.256C100.686 56.256 96.7503 52.96 96.7823 47.072C96.8143 41.376 100.526 38.208 105.55 38.208C110.254 38.208 113.966 40.928 114.062 47.488ZM105.582 42.016C103.054 42.016 101.614 43.168 101.23 45.536H109.806C109.326 42.912 107.758 42.016 105.582 42.016ZM115.237 56V52.48C115.493 52.576 115.749 52.576 116.005 52.576C117.893 52.576 118.629 49.344 119.333 38.464H132.005V56H127.749V42.176H123.141C122.213 51.968 121.221 56.256 117.061 56.256C116.389 56.256 115.781 56.192 115.237 56ZM148.65 38.464V42.176H140.746V56H136.458V38.464H148.65ZM160.035 56.256C154.435 56.256 150.563 52.448 150.595 47.2C150.627 41.952 154.531 38.208 160.003 38.208C165.571 38.208 169.507 41.984 169.507 47.2C169.507 52.512 165.603 56.256 160.035 56.256ZM165.059 47.328C165.059 44.256 162.979 42.016 160.035 42.016C157.155 42.016 155.075 44.224 155.075 47.232C155.075 50.24 157.027 52.448 160.067 52.448C163.075 52.448 165.059 50.272 165.059 47.328ZM177.498 62.208H173.242V38.464H177.37L177.498 40.864C178.842 38.944 181.114 38.208 183.29 38.208C188.25 38.208 191.77 41.888 191.77 47.264C191.77 52.544 188.186 56.256 183.258 56.256C181.114 56.256 178.746 55.52 177.498 53.568V62.208ZM182.266 52.448C185.434 52.448 187.29 50.24 187.29 47.136C187.29 44.16 185.53 42.016 182.298 42.016C179.002 42.016 177.242 44.224 177.242 47.232C177.242 50.24 179.13 52.448 182.266 52.448ZM203.691 56.256C198.091 56.256 194.219 52.448 194.251 47.2C194.283 41.952 198.187 38.208 203.659 38.208C209.227 38.208 213.163 41.984 213.163 47.2C213.163 52.512 209.259 56.256 203.691 56.256ZM208.715 47.328C208.715 44.256 206.635 42.016 203.691 42.016C200.811 42.016 198.731 44.224 198.731 47.232C198.731 50.24 200.683 52.448 203.723 52.448C206.731 52.448 208.715 50.272 208.715 47.328ZM218.476 60.096H214.572V52.288H216.844C217.964 49.44 218.732 45.664 219.244 38.464H232.076V52.288H234.572V60.128H230.828V56H218.476V60.096ZM221.292 52.288H227.82V42.176H223.084C222.86 45.824 221.772 50.624 221.292 52.288Z" fill="#E7E7E7"/>
</svg>
